<svg width="500" height="500" viewBox="0 0 500 500" fill="none" xmlns="http://www.w3.org/2000/svg">
<path d="M227.5 379.503C314.209 379.503 381 315.188 381 233.997C381 152.812 310.709 87 224 87C137.291 87 67 152.315 67 233.5C67 314.691 140.791 379.503 227.5 379.503Z" fill="white"/>
<path opacity="0.3" d="M239.227 476.875C326.061 476.875 396.454 466.382 396.454 453.437C396.454 440.493 326.061 430 239.227 430C152.393 430 82 440.493 82 453.437C82 466.382 152.393 476.875 239.227 476.875Z" fill="black"/>
<path d="M246.64 380.702C298.065 383.4 328.08 353.529 354.5 316.5C354.5 279.214 296.147 258 246.64 258C197.133 258 124.5 296.214 124.5 333.5C124.5 370.789 197.133 380.702 246.64 380.702Z" fill="#4400FF"/>
<path d="M245.525 261.709C247.566 261.303 261.035 258.727 263.009 245.734C265.065 235.435 258.407 231.158 244.53 231.516C230.653 231.873 220.594 236.042 224.354 246.73C231.978 264.464 244.505 261.713 245.525 261.709Z" fill="#FF9500"/>
<path d="M243.84 262.807C245.807 262.635 258.783 261.538 260.919 257.052C263.082 253.49 256.77 252.129 243.444 252.473C230.118 252.817 220.386 254.406 223.796 258.009C230.786 263.967 242.861 262.825 243.84 262.807Z" fill="#4400FF"/>
<path d="M242.938 251.671C244.98 251.265 258.449 248.688 260.423 235.695C262.478 225.397 255.82 221.12 241.943 221.477C228.067 221.835 218.008 226.004 221.767 236.692C229.391 254.426 241.918 251.675 242.938 251.671Z" fill="#282726"/>
<path d="M241.928 247.486C269.121 240.779 275.013 237.426 279.998 197.181C284.984 165.32 271.214 151.486 241.928 151.486C212.641 151.486 191.167 163.643 198.418 197.181C213.375 252.937 222.892 242.456 241.928 247.486Z" fill="#FF9D13"/>
<path d="M219 198.486C222.314 198.486 225 195.8 225 192.486C225 189.172 222.314 186.486 219 186.486C215.686 186.486 213 189.172 213 192.486C213 195.8 215.686 198.486 219 198.486Z" fill="white"/>
<path d="M261 195.486C264.314 195.486 267 193.024 267 189.986C267 186.949 264.314 184.486 261 184.486C257.686 184.486 255 186.949 255 189.986C255 193.024 257.686 195.486 261 195.486Z" fill="white"/>
<path d="M260.5 195.486C262.433 195.486 264 193.919 264 191.986C264 190.053 262.433 188.486 260.5 188.486C258.567 188.486 257 190.053 257 191.986C257 193.919 258.567 195.486 260.5 195.486Z" fill="black"/>
<path d="M260 194.486C261.105 194.486 262 193.591 262 192.486C262 191.382 261.105 190.486 260 190.486C258.895 190.486 258 191.382 258 192.486C258 193.591 258.895 194.486 260 194.486Z" fill="#86769D" fill-opacity="0.63"/>
<path d="M218.5 197.486C220.433 197.486 222 195.919 222 193.986C222 192.053 220.433 190.486 218.5 190.486C216.567 190.486 215 192.053 215 193.986C215 195.919 216.567 197.486 218.5 197.486Z" fill="black"/>
<path d="M242.698 191.316L238.179 209.764C238.179 209.764 232.704 212.009 234.11 214.795C235.15 216.854 240.44 217.31 240.44 217.31" stroke="black" stroke-linecap="round"/>
<path d="M227.328 226.953C227.328 226.953 230.493 230.727 241.345 230.727C252.196 230.727 253.553 226.953 253.553 226.953" stroke="black" stroke-linecap="round"/>
<path d="M211.59 182.953C211.59 182.953 211.59 179.996 218.285 180.415C224.98 180.835 226.118 182.127 226.118 182.127" stroke="black" stroke-linecap="round"/>
<path d="M253.59 179.744C253.59 179.744 252.663 177.849 261.927 179.664C271.19 181.48 268.631 182.693 268.631 182.693" stroke="black" stroke-linecap="round"/>
<path d="M285 195.986C285 201.785 282.484 206.486 279.38 206.486C276.275 206.486 279.38 203.098 279.38 197.299C279.38 191.5 276.275 185.486 279.38 185.486C282.484 185.486 285 190.187 285 195.986Z" fill="#FF9500"/>
<path d="M193.057 201.466C191.757 196.041 193.47 191.074 196.883 190.371C200.296 189.668 197.642 193.541 198.942 198.966C200.242 204.391 205.002 209.313 201.589 210.016C198.177 210.719 194.356 206.891 193.057 201.466Z" fill="#FF9500"/>
<path d="M218.5 196.486C219.881 196.486 221 195.591 221 194.486C221 193.382 219.881 192.486 218.5 192.486C217.119 192.486 216 193.382 216 194.486C216 195.591 217.119 196.486 218.5 196.486Z" fill="#EBC42B" fill-opacity="0.4"/>
<g filter="url(#filter0_d_0_1)">
<path d="M197.484 194.216L196.581 195.509L196.129 200.121C196.129 200.121 197.486 206.829 198.39 205.152C198.954 204.106 198.39 202.217 198.39 202.217" stroke="black" stroke-linecap="round"/>
</g>
<g filter="url(#filter1_d_0_1)">
<path d="M279.925 201.874L280.988 201.375L282.005 199.884C282.005 199.884 282.596 195.035 281.45 195.742C280.736 196.183 280.988 198.024 280.988 198.024" stroke="black" stroke-linecap="round"/>
</g>
<path d="M246.659 133.602C246.886 133.624 247.109 133.672 247.325 133.744L266.534 140.176C267.16 140.386 267.7 140.797 268.069 141.345L283.357 164.045C283.771 164.66 283.943 165.406 283.839 166.14L280.837 187.426C280.37 190.74 275.648 190.916 274.936 187.646L270.182 165.836C270.063 165.289 269.803 164.795 269.396 164.412C266.353 161.54 252.338 149.417 239.5 156.5C228.175 162.748 216.545 165.031 211.995 165.732C210.791 165.917 209.773 166.763 209.426 167.93L203.078 189.284C202.152 192.398 197.628 192.025 197.225 188.802L195.562 175.497C195.521 175.168 195.535 174.834 195.603 174.51L199.795 154.481C199.928 153.844 200.265 153.268 200.754 152.839L209.828 144.887C209.942 144.786 210.065 144.694 210.193 144.612L229.129 132.555C229.693 132.195 230.362 132.035 231.028 132.099L246.659 133.602Z" fill="#040404"/>
<path d="M243.818 144.357C244.029 144.376 244.238 144.417 244.44 144.48L261.947 149.906C262.565 150.098 263.104 150.484 263.484 151.007L277.549 170.339C277.845 170.745 278.034 171.22 278.098 171.718L279.667 183.837C280.084 187.057 275.8 188.552 274.123 185.772L265.394 171.302C265.256 171.074 265.098 170.873 264.9 170.695C262.793 168.805 249.454 157.535 237.271 163.757C227.016 168.995 216.487 170.944 212.232 171.559C211.042 171.731 210.033 172.548 209.665 173.693L204.258 190.528C203.281 193.571 198.857 193.179 198.429 190.012L197.072 179.966C197.025 179.612 197.04 179.252 197.119 178.903L200.889 162.229C201.038 161.572 201.403 160.985 201.926 160.561L210.097 153.931C210.213 153.837 210.336 153.752 210.464 153.676L227.746 143.489C228.286 143.171 228.912 143.03 229.536 143.085L243.818 144.357Z" fill="#040404"/>
<path d="M235.5 240C235.5 240 237.331 240.652 240 240.5C242.773 240.343 244 239.466 244 239.466" stroke="white" stroke-linecap="round"/>
<path d="M224 259.769C224 259.769 230.553 262.26 234.469 264C238.609 265.84 256 265.769 256 265.769" stroke="white" stroke-width="3" stroke-linecap="round"/>
<defs>
<filter id="filter0_d_0_1" x="191.624" y="193.717" width="11.5174" height="20.2048" filterUnits="userSpaceOnUse" color-interpolation-filters="sRGB">
<feFlood flood-opacity="0" result="BackgroundImageFix"/>
<feColorMatrix in="SourceAlpha" type="matrix" values="0 0 0 0 0 0 0 0 0 0 0 0 0 0 0 0 0 0 127 0" result="hardAlpha"/>
<feOffset dy="4"/>
<feGaussianBlur stdDeviation="2"/>
<feComposite in2="hardAlpha" operator="out"/>
<feColorMatrix type="matrix" values="0 0 0 0 0 0 0 0 0 0 0 0 0 0 0 0 0 0 0.25 0"/>
<feBlend mode="normal" in2="BackgroundImageFix" result="effect1_dropShadow_0_1"/>
<feBlend mode="normal" in="SourceGraphic" in2="effect1_dropShadow_0_1" result="shape"/>
</filter>
<filter id="filter1_d_0_1" x="275.422" y="195.175" width="11.2385" height="15.1957" filterUnits="userSpaceOnUse" color-interpolation-filters="sRGB">
<feFlood flood-opacity="0" result="BackgroundImageFix"/>
<feColorMatrix in="SourceAlpha" type="matrix" values="0 0 0 0 0 0 0 0 0 0 0 0 0 0 0 0 0 0 127 0" result="hardAlpha"/>
<feOffset dy="4"/>
<feGaussianBlur stdDeviation="2"/>
<feComposite in2="hardAlpha" operator="out"/>
<feColorMatrix type="matrix" values="0 0 0 0 0 0 0 0 0 0 0 0 0 0 0 0 0 0 0.25 0"/>
<feBlend mode="normal" in2="BackgroundImageFix" result="effect1_dropShadow_0_1"/>
<feBlend mode="normal" in="SourceGraphic" in2="effect1_dropShadow_0_1" result="shape"/>
</filter>
</defs>
</svg>
